<svg width="595" height="714" viewBox="0 0 595 714" fill="none" xmlns="http://www.w3.org/2000/svg">
<g clip-path="url(#clip0_108_17)">
<path d="M352.25 0.188657C353.596 0.000233651 353.266 -0.120896 354.478 0.181927C348.643 2.14691 341.153 3.80234 335.05 5.48469C327.102 7.72558 319.236 10.2558 311.477 13.0755C256.087 32.732 205.542 63.9968 163.215 104.77C110.261 156.284 74.1442 218.618 58.6464 291.188C54.1108 311.672 51.6209 332.554 51.2239 353.529C51.0489 410.399 73.0137 465.103 112.475 506.051C157.441 551.946 218.591 574.314 282.264 575.007C259.882 597.524 254.048 616.844 261.962 647.577L240.004 644.482C191.794 635.895 146.189 616.406 106.661 587.504C50.2414 545.499 12.8731 482.754 2.81933 413.131C-9.99345 328.778 22.2202 235.691 71.9774 168.094C137.508 79.0639 243.086 16.6891 352.25 0.188657Z" fill="#0D2D4B"/>
<path d="M521.347 424.774C526.064 424.296 543.843 424.464 546.905 428.011C545.357 431.941 517.107 458.414 512.619 462.929C508.817 466.705 505.23 470.688 501.879 474.867C503.427 483.824 505.344 492.714 507.626 501.509C518.702 505.749 530.755 507.942 542.37 510.372C547.619 506.038 552.302 500.823 557.1 495.984C567.78 485.21 578.157 473.737 589.98 464.195C606.467 505.776 580.667 552.727 536.555 560.802C529.799 562.592 512.195 560.068 506.825 562.975C497.262 568.15 484.463 580.559 475.627 587.221C450.136 607.215 419.376 624.28 389.599 636.844C391.133 606.071 386.079 594.839 364.195 573.204C397.075 566.414 441.106 548.009 460.648 519.901C458.858 514.51 457.633 508.959 456.994 503.319C452.66 463.925 482.303 429.101 521.354 424.774H521.347Z" fill="#0D2D4B"/>
<path d="M407.258 183.491C413.328 183.457 424.054 183.928 427.762 189.379C433.348 197.582 414.196 205.233 408.826 207.797C402.803 210.678 396.572 213.019 390.589 216.175C390.69 223.618 391.087 234.634 390.293 242.023C389.189 252.319 387.494 272.575 379.573 279.681C375.448 283.382 365.32 281.592 360.098 280.953C359.97 291.525 360.374 302.096 361.296 312.621C352.225 323.536 343.874 330.077 330.893 336.026C319.89 334.001 315.429 331.861 305.631 326.935C296.31 321.531 290.436 315.771 284.177 307.15C291.923 295.905 294.52 271.41 289.224 258.476C288.127 255.791 281.99 248.053 280.012 245.267C302.501 223.551 345.401 198.672 375.475 189.278C385.986 185.994 396.309 184.204 407.251 183.491H407.258Z" fill="#0D2D4B"/>
<path d="M319.956 574.617C330.441 573.345 341.329 576.017 350.306 581.488C362.425 588.978 371.093 600.956 374.424 614.805C378.657 632.605 373.583 644.852 364.586 659.576C364.586 659.576 339.727 695.921 326.968 711.837L325.198 713.263L324.101 713.129C315.306 705.565 284.156 660.76 284.62 659.381C278.705 650.915 275.091 644.119 273.57 633.688C271.552 619.906 275.212 605.896 283.705 594.853C293.227 582.329 304.694 576.777 319.956 574.611V574.617Z" fill="#007DAD"/>
<path d="M321.296 598.715C331.161 597.537 340.905 601.75 346.8 609.751C352.695 617.752 353.839 628.304 349.788 637.382C345.737 646.46 337.123 652.658 327.231 653.613C312.177 655.067 298.752 644.138 297.13 629.098C295.508 614.058 306.282 600.511 321.302 598.715H321.296Z" fill="white"/>
<path d="M272.414 338.987C275.597 340.434 282.245 349.229 285.26 352.002C295.018 360.986 316.128 372.91 329.412 372.863C344.149 372.809 362.043 354.875 371.713 344.674C378.341 346.558 384.775 348.859 391.282 351.12C387.668 370.367 384.586 390.373 380.946 409.915C379.903 416.833 378.409 424.289 377.157 431.214C344.068 432.109 306.687 431.241 273.215 431.214C267.616 402.883 260.348 373.24 253.895 344.99L272.414 338.987Z" fill="#0D2D4B"/>
<path d="M406.175 355.736C446.726 369.834 460.939 377.89 472.702 421.059C463.617 434.551 450.851 448.38 438.839 459.302C429.647 466.96 419.66 473.608 409.048 479.127C402.864 463.723 400.246 451.529 396.989 435.379L392.844 432.66C393.961 424.235 396.094 414.053 397.574 405.554L406.168 355.743L406.175 355.736Z" fill="#0D2D4B"/>
<path d="M238.023 350.151L238.737 350.427C240.816 353.321 256.112 423.892 257.989 432.237L253.541 435.366C251.193 449.565 248.467 459.578 244.45 473.36C234.127 467.425 224.538 458.804 215.682 450.897C199.188 435.635 182.109 412.015 173.488 391.376C189.672 366.107 211.133 360.353 238.023 350.158V350.151Z" fill="#0D2D4B"/>
<path d="M330.388 164.844C333.773 164.453 339.009 164.904 342.387 165.328C349.264 166.23 355.314 169.891 359.809 175.072C367.057 183.423 373.49 192.441 379.957 201.391C347.158 209.87 325.092 223.49 296.721 241.68C289.05 247.07 280.867 253.813 273.612 259.755C268.902 250.273 265.51 241.565 264.608 230.94C261.264 191.479 294.386 167.932 330.382 164.844H330.388Z" fill="#0D2D4B"/>
<path d="M125.422 345.528L145.852 345.575C152.548 382.008 158.665 403.011 181.222 433.939C211.329 475.446 256.874 503.09 307.587 510.648L307.519 530.257C276.948 528.79 237.433 511.28 213.126 493.562C174.863 465.662 146.041 428.044 133.134 382.183C129.264 368.428 127.73 359.774 125.422 345.535V345.528Z" fill="#007DAD"/>
<path d="M354.89 116.197C391.632 120.437 423.496 132.503 453.374 154.36C492.311 182.845 520.036 224.07 531.731 270.879C534.255 280.657 535.641 289.688 537.196 299.681L516.812 299.762C514.921 272.568 500.265 237.387 484.659 215.436C459.787 180.45 425.609 154.091 384.115 142.24C373.84 139.306 365.441 137.812 354.883 135.975C354.97 129.387 354.97 122.792 354.89 116.204V116.197Z" fill="#007DAD"/>
<path d="M445.589 471.939C445.865 472.215 446.114 472.417 446.006 472.969C444.243 481.65 442.661 489.752 442.978 498.642C411.329 518.433 393.268 525.075 356.142 530.546L355.57 530.142C354.318 527.194 354.89 514.664 354.964 510.889C392.191 504.577 415.636 494.799 445.589 471.933V471.939Z" fill="#007DAD"/>
<path d="M516.819 345.515L537.169 345.575C533.878 371.059 528.939 388.367 517.876 411.55C513.401 412.439 509.706 413.32 505.299 414.498C500.393 415.951 494.808 418.381 489.996 420.325C493.051 414.107 496.847 407.728 500.057 401.16C509.424 381.995 513.071 366.268 516.819 345.515Z" fill="#007DAD"/>
<path d="M326.746 72.0177C329.114 71.9235 331.16 71.9235 333.219 72.0043C334.982 72.0716 339.39 73.3838 339.606 74.7835C341.086 84.2854 341.564 138.733 340.299 145.187C339.081 146.135 337.89 145.873 336.274 145.839H321.49C321.416 135.961 320.386 80.0594 322.708 74.2923C324.31 72.758 324.579 72.7714 326.739 72.0245L326.746 72.0177Z" fill="#007DAD"/>
<path d="M343.065 71.9443H319.809V147.98H343.065V71.9443Z" fill="#007DAD"/>
<path d="M307.661 135.968C297.102 137.799 288.704 139.292 278.428 142.233C236.935 154.09 202.756 180.449 177.884 215.429C162.279 237.387 147.622 272.561 145.731 299.755L125.348 299.674C126.902 289.681 128.288 280.65 130.812 270.872C142.501 224.069 170.226 182.838 209.169 154.353C239.048 132.496 270.918 120.423 307.654 116.19C307.573 122.779 307.573 129.373 307.661 135.961V135.968Z" fill="#007DAD"/>
<path d="M173.488 334.223V310.966H97.4528V334.223H173.488Z" fill="#007DAD"/>
<path d="M566.023 334.223V310.966H489.988V334.223H566.023Z" fill="#007DAD"/>
<path d="M342.804 482.626H319.547V558.661H342.804V482.626Z" fill="#007DAD"/>
</g>
<defs>
<clipPath id="clip0_108_17">
<rect width="595" height="713.263" fill="white"/>
</clipPath>
</defs>
</svg>
